<svg xmlns="http://www.w3.org/2000/svg" version="1.1" xmlns:xlink="http://www.w3.org/1999/xlink" xmlns:svgjs="http://svgjs.dev/svgjs" width="100%" height="100%" viewBox="0 0 1000 600"><rect width="1000" height="600" x="0" y="0" fill="#ffddd2"/><g><circle r="166.66666666666666" cx="392.0812632242838" cy="404.22217328567217" fill="#ffb9b9" transform="matrix(0.5804955011601428,0,0,0.5804955011601427,-2.4549959554249012,65.35084902889977)"/><path d="M293.36281838181566 434.30023505282537L293.36281838181566 329.22218409629136L312.96197066476753 329.22218409629136L312.96197066476753 434.01116201030396Q312.96197066476753 455.2580306356279 300.2138494895732 467.22565459601446Q287.4657283143788 479.22218586065316 266.21885968905485 479.22218586065316L266.21885968905485 479.22218586065316Q244.16258654467094 479.22218586065316 231.87698223751084 467.94833720231804Q219.56247062609862 456.6744885439829 219.56247062609862 436.3526536547274L219.56247062609862 436.3526536547274L239.07490099629408 436.3526536547274Q239.07490099629408 449.0429602214175 246.04156132106016 456.1541570674443Q253.00822164582624 463.26535391347113 266.21885968905485 463.26535391347113L266.21885968905485 463.26535391347113Q278.30211286645 463.26535391347113 285.7891046677546 455.6627328951579Q293.2471891648071 448.0312045725925 293.36281838181566 434.30023505282537L293.36281838181566 434.30023505282537ZM343.66152778054175 467.34128381302304L343.66152778054175 467.34128381302304Q343.66152778054175 462.45594939441116 346.55225820575583 459.2183313181713Q349.44298863097004 455.9518059376793 355.25335678565045 455.9518059376793Q361.03481763607874 455.9518059376793 364.04117727830146 459.2183313181713Q367.0475369205241 462.45594939441116 367.0475369205241 467.34128381302304L367.0475369205241 467.34128381302304Q367.0475369205241 472.02426710186995 364.04117727830146 475.1751632653534Q361.03481763607874 478.32605942883674 355.25335678565045 478.32605942883674Q349.44298863097004 478.32605942883674 346.55225820575583 475.1751632653534Q343.66152778054175 472.02426710186995 343.66152778054175 467.34128381302304ZM421.91360039108855 329.22218409629136L421.91360039108855 477.19867456300324L402.40117002089306 477.19867456300324L402.40117002089306 329.22218409629136L421.91360039108855 329.22218409629136ZM498.54686396351553 477.19867456300324L457.5852138382311 477.19867456300324L457.5852138382311 329.22218409629136L499.3562684825755 329.22218409629136Q518.6663477230059 329.22218409629136 533.4957948043544 337.7787461549252Q548.325241885703 346.3064009093069 556.4192870763026 362.060881726724Q564.48442496265 377.81536254414107 564.6000541796586 398.2239193461529L564.6000541796586 398.2239193461529L564.6000541796586 407.6766078366031Q564.6000541796586 428.63440341940566 556.5060089890591 444.3599769325706Q548.4408711027115 460.1144577499877 533.4379801958502 468.555390591613Q518.463996593241 476.9963234332383 498.54686396351553 477.19867456300324L498.54686396351553 477.19867456300324ZM499.8476926548618 345.29464526048196L477.0976442084265 345.29464526048196L477.0976442084265 461.2418426158212L497.62183022744694 461.2418426158212Q520.1984348483694 461.2418426158212 532.7442048937987 447.2218000535326Q545.2899749392282 433.201757491244 545.2899749392282 407.27190557707314L545.2899749392282 407.27190557707314L545.2899749392282 398.6286216056829Q545.2899749392282 373.4503596020677 533.4379801958502 359.45922434403127Q521.6148927567243 345.4969963902469 499.8476926548618 345.29464526048196L499.8476926548618 345.29464526048196Z " fill="#ffddd2" transform="matrix(0.5804955011601428,0,0,0.5804955011601427,-2.4549959554249012,65.35084902889977)"/><path d="M714.8992954842255 434.8981662312977L714.8992954842255 331.2187598008019L734.237572667135 331.2187598008019L734.237572667135 434.61294090411616Q734.237572667135 455.57700245196054 721.6591357384284 467.38533099727704Q709.0806988097218 479.2221820753116 688.1166372618773 479.2221820753116L688.1166372618773 479.2221820753116Q666.3539447979244 479.2221820753116 654.2318683927083 468.0983943152309Q642.081269454774 456.9746065551502 642.081269454774 436.9232660542868L642.081269454774 436.9232660542868L661.3339790395291 436.9232660542868Q661.3339790395291 449.4446579175571 668.2079094246046 456.4612009662234Q675.0818398096801 463.4777440148897 688.1166372618773 463.4777440148897L688.1166372618773 463.4777440148897Q700.0390559380664 463.4777440148897 707.4263919120687 455.97631791001476Q714.7852053533529 448.44636927242163 714.8992954842255 434.8981662312977L714.8992954842255 434.8981662312977ZM859.3944462344022 477.22560478504073L845.446927735224 439.11950107358473L784.2660950547801 439.11950107358473L770.5467568173472 477.22560478504073L750.6950740455109 477.22560478504073L806.428102976787 331.2187598008019L823.284919813217 331.2187598008019L879.1320388753659 477.22560478504073L859.3944462344022 477.22560478504073ZM814.8707726613611 354.9780295550255L790.0846917292838 423.2894954150084L839.7424211915928 423.2894954150084L814.8707726613611 354.9780295550255ZM941.824565789872 412.1371851222095L941.824565789872 412.1371851222095Q917.0384848577949 405.03507447538874 905.7720844341233 394.65287256598003Q894.4771614777336 384.2706706565714 894.4771614777336 369.0396381850762L894.4771614777336 369.0396381850762Q894.4771614777336 351.7835058905921 908.282067313321 340.48858293420244Q922.0584506161902 329.22218251053096 944.1063684073245 329.22218251053096L944.1063684073245 329.22218251053096Q959.1662656825107 329.22218251053096 970.9460716951089 335.0407791850347Q982.7258777077072 340.85937585953843 989.2004926347286 351.07044257263817Q995.6465850290317 361.3100318184561 995.6465850290317 373.43210822367223L995.6465850290317 373.43210822367223L976.3083078461223 373.43210822367223Q976.3083078461223 360.197653042448 967.8941606942664 352.63918187213676Q959.4514910096923 345.05218816910735 944.1063684073245 345.05218816910735L944.1063684073245 345.05218816910735Q929.8736245809648 345.05218816910735 921.9158379525993 351.3271453671016Q913.9295287915158 357.60210256509583 913.9295287915158 368.7258903251766L913.9295287915158 368.7258903251766Q913.9295287915158 377.65344306595927 921.5165224945451 383.8143101330809Q929.0749936648565 389.97517720020255 947.2723695390398 395.10923308947054Q965.4697454132231 400.2147664460204 975.7663797244772 406.375633513142Q986.0344915030133 412.5365005802637 990.9974121959724 420.7795125358107Q995.9603328889316 428.9940019586395 995.9603328889316 440.1177897187202L995.9603328889316 440.1177897187202Q995.9603328889316 457.85880506941305 982.126904520626 468.5547548387214Q968.2934761523205 479.2221820753116 945.1331795851781 479.2221820753116L945.1331795851781 479.2221820753116Q930.0732823099919 479.2221820753116 917.0384848577949 473.4606304662442Q904.0036874055976 467.6990788571767 896.930099291495 457.65914734038597Q889.8565111773923 447.6477383563133 889.8565111773923 434.8981662312977L889.8565111773923 434.8981662312977L909.2233108930201 434.8981662312977Q909.2233108930201 448.1326214125219 919.0065396153475 455.8051827137058Q928.7897683376749 463.4777440148897 945.1331795851781 463.4777440148897L945.1331795851781 463.4777440148897Q960.3642120566733 463.4777440148897 968.4931338813476 457.25983188233175Q976.5935331733037 451.0419197497738 976.5935331733037 440.31744744774727Q976.5935331733037 429.59297514572074 969.092107068429 423.71733340578066Q961.5621584308358 417.87021419855876 941.824565789872 412.1371851222095ZM1121.5165219142527 331.2187598008019L1121.5165219142527 347.0772879920964L1074.5684330601684 347.0772879920964L1074.5684330601684 477.22560478504073L1055.4298136062862 477.22560478504073L1055.4298136062862 347.0772879920964L1008.5958148830746 347.0772879920964L1008.5958148830746 331.2187598008019L1121.5165219142527 331.2187598008019ZM1163.8154379352777 331.2187598008019L1163.8154379352777 477.22560478504073L1144.5627283505225 477.22560478504073L1144.5627283505225 331.2187598008019L1163.8154379352777 331.2187598008019ZM1252.6631273523326 420.06644921785676L1218.264952894237 420.06644921785676L1218.264952894237 477.22560478504073L1199.0122433094816 477.22560478504073L1199.0122433094816 331.2187598008019L1252.8627850813596 331.2187598008019Q1276.8217125646106 331.2187598008019 1290.4269606711707 343.4549263368906Q1304.003686245013 355.6910928729794 1304.003686245013 375.8565235047155L1304.003686245013 375.8565235047155Q1304.003686245013 397.10581037974146 1290.7121859983522 408.6003910651582Q1277.4206857516917 420.06644921785676 1252.6631273523326 420.06644921785676L1252.6631273523326 420.06644921785676ZM1218.264952894237 347.0772879920964L1218.264952894237 404.3220111574348L1252.8627850813596 404.3220111574348Q1268.293475281882 404.3220111574348 1276.536487237429 397.0487653143051Q1284.7509766602577 389.7755194711754 1284.7509766602577 376.05618123374256L1284.7509766602577 376.05618123374256Q1284.7509766602577 363.0213837815454 1276.536487237429 355.1776872840526Q1268.293475281882 347.3625133192779 1253.9751638573678 347.0772879920964L1253.9751638573678 347.0772879920964L1218.264952894237 347.0772879920964ZM1293.564439270168 467.49942112814966L1293.564439270168 467.49942112814966Q1293.564439270168 462.67911309878133 1296.4452150747015 459.48458943434787Q1299.2974683465172 456.2615432371963 1305.0019748901482 456.2615432371963Q1310.7350039664975 456.2615432371963 1313.6728248364675 459.48458943434787Q1316.6391682391559 462.67911309878133 1316.6391682391559 467.49942112814966L1316.6391682391559 467.49942112814966Q1316.6391682391559 472.12007142849086 1313.6728248364675 475.22902749476987Q1310.7350039664975 478.3379835610488 1305.0019748901482 478.3379835610488Q1299.2974683465172 478.3379835610488 1296.4452150747015 475.22902749476987Q1293.564439270168 472.12007142849086 1293.564439270168 467.49942112814966ZM1370.774935338215 331.2187598008019L1370.774935338215 477.22560478504073L1351.5222257534601 477.22560478504073L1351.5222257534601 331.2187598008019L1370.774935338215 331.2187598008019ZM1446.388169574046 477.22560478504073L1405.9717407124194 477.22560478504073L1405.9717407124194 331.2187598008019L1447.1868004901544 331.2187598008019Q1466.2398523458824 331.2187598008019 1480.9004341630143 339.66142948537595Q1495.5324934474281 348.07557663723185 1503.4902800757936 363.6203569686267Q1511.4765892368773 379.1651373000215 1511.5621568350316 399.30204539903946L1511.5621568350316 399.30204539903946L1511.5621568350316 408.62891359787636Q1511.5621568350316 429.3077498185392 1503.6043702066663 444.8240076172159Q1495.6180610455826 460.36878794861076 1480.843389097578 468.6973675023122Q1466.0401946168552 477.02594705601365 1446.388169574046 477.22560478504073L1446.388169574046 477.22560478504073ZM1447.7002060790812 347.0772879920964L1425.2244502971744 347.0772879920964L1425.2244502971744 461.4811667246188L1445.5039710597832 461.4811667246188Q1467.7515465799445 461.4811667246188 1480.1303257796242 447.6477383563133Q1492.5091049793036 433.8143099880078 1492.5091049793036 408.22959813982214L1492.5091049793036 408.22959813982214L1492.5091049793036 399.7013608570936Q1492.5091049793036 374.85823485958 1480.843389097578 361.05332902399266Q1469.1491506831342 347.27694572112347 1447.7002060790812 347.0772879920964L1447.7002060790812 347.0772879920964Z " fill="WHITE" transform="matrix(0.5804955011601428,0,0,0.5804955011601427,-2.4549959554249012,65.35084902889977)"/></g></svg>