<svg id="visual" viewBox="0 0 1920 1080" width="1920" height="1080" xmlns="http://www.w3.org/2000/svg" xmlns:xlink="http://www.w3.org/1999/xlink" version="1.1"><g stroke-width="1" stroke-linejoin="bevel"><path d="M873.3 524L1044.7 383L890.3 356Z" fill="#fda799" stroke="#fda799"></path><path d="M873.3 524L1096.7 521L1044.7 383Z" fill="#fda799" stroke="#fda799"></path><path d="M1065.7 190L832.3 217L890.3 356Z" fill="#fab9a8" stroke="#fab9a8"></path><path d="M639 349L655 573L873.3 524Z" fill="#fcad9e" stroke="#fcad9e"></path><path d="M655 573L866.3 695L873.3 524Z" fill="#fbb3a3" stroke="#fbb3a3"></path><path d="M873.3 524L1044.7 742L1096.7 521Z" fill="#ff8787" stroke="#ff8787"></path><path d="M1248 399L1065.7 190L1044.7 383Z" fill="#fab9a8" stroke="#fab9a8"></path><path d="M1044.7 383L1065.7 190L890.3 356Z" fill="#fda799" stroke="#fda799"></path><path d="M1096.7 521L1248 399L1044.7 383Z" fill="#f9beae" stroke="#f9beae"></path><path d="M866.3 695L1044.7 742L873.3 524Z" fill="#ff8e8a" stroke="#ff8e8a"></path><path d="M1096.7 521L1286 567L1248 399Z" fill="#ff8787" stroke="#ff8787"></path><path d="M639 349L873.3 524L890.3 356Z" fill="#fab9a8" stroke="#fab9a8"></path><path d="M832.3 217L639 349L890.3 356Z" fill="#f8c4b4" stroke="#f8c4b4"></path><path d="M1248 747L1286 567L1096.7 521Z" fill="#f8c4b4" stroke="#f8c4b4"></path><path d="M655 573L651 695L866.3 695Z" fill="#fe948d" stroke="#fe948d"></path><path d="M837.3 896L1069.7 885L1044.7 742Z" fill="#fda799" stroke="#fda799"></path><path d="M432.7 702L651 695L655 573Z" fill="#ff8787" stroke="#ff8787"></path><path d="M1474.3 320L1273 180L1248 399Z" fill="#f8c4b4" stroke="#f8c4b4"></path><path d="M1248 399L1273 180L1065.7 190Z" fill="#ff8e8a" stroke="#ff8e8a"></path><path d="M1044.7 742L1248 747L1096.7 521Z" fill="#fea195" stroke="#fea195"></path><path d="M829.3 0L615 150L832.3 217Z" fill="#ff8787" stroke="#ff8787"></path><path d="M832.3 217L615 150L639 349Z" fill="#fe948d" stroke="#fe948d"></path><path d="M639 349L421.7 503L655 573Z" fill="#fab9a8" stroke="#fab9a8"></path><path d="M829.3 0L832.3 217L1065.7 190Z" fill="#fab9a8" stroke="#fab9a8"></path><path d="M837.3 896L1044.7 742L866.3 695Z" fill="#fe9b91" stroke="#fe9b91"></path><path d="M1044.7 742L1069.7 885L1248 747Z" fill="#fcad9e" stroke="#fcad9e"></path><path d="M651 695L837.3 896L866.3 695Z" fill="#fea195" stroke="#fea195"></path><path d="M1087.7 0L829.3 0L1065.7 190Z" fill="#fcad9e" stroke="#fcad9e"></path><path d="M1273 180L1087.7 0L1065.7 190Z" fill="#ff8e8a" stroke="#ff8e8a"></path><path d="M1509.3 702L1465.3 549L1286 567Z" fill="#fe948d" stroke="#fe948d"></path><path d="M1286 567L1465.3 549L1248 399Z" fill="#ff8e8a" stroke="#ff8e8a"></path><path d="M615 150L429.7 381L639 349Z" fill="#ff8787" stroke="#ff8787"></path><path d="M429.7 381L421.7 503L639 349Z" fill="#f8c4b4" stroke="#f8c4b4"></path><path d="M651 695L621 886L837.3 896Z" fill="#ff8787" stroke="#ff8787"></path><path d="M1465.3 549L1474.3 320L1248 399Z" fill="#fe9b91" stroke="#fe9b91"></path><path d="M1273 180L1277 0L1087.7 0Z" fill="#fda799" stroke="#fda799"></path><path d="M432.7 702L621 886L651 695Z" fill="#fe9b91" stroke="#fe9b91"></path><path d="M1495.3 0L1277 0L1273 180Z" fill="#fea195" stroke="#fea195"></path><path d="M1069.7 885L1261 916L1248 747Z" fill="#fcad9e" stroke="#fcad9e"></path><path d="M1248 747L1509.3 702L1286 567Z" fill="#fcad9e" stroke="#fcad9e"></path><path d="M1030.7 1080L1261 916L1069.7 885Z" fill="#f9beae" stroke="#f9beae"></path><path d="M1030.7 1080L1069.7 885L837.3 896Z" fill="#fe948d" stroke="#fe948d"></path><path d="M829.3 0L616 0L615 150Z" fill="#fe9b91" stroke="#fe9b91"></path><path d="M615 150L389.7 178L429.7 381Z" fill="#fab9a8" stroke="#fab9a8"></path><path d="M421.7 503L432.7 702L655 573Z" fill="#f8c4b4" stroke="#f8c4b4"></path><path d="M1516.3 923L1509.3 702L1248 747Z" fill="#ff8787" stroke="#ff8787"></path><path d="M1465.3 549L1709.7 391L1474.3 320Z" fill="#f8c4b4" stroke="#f8c4b4"></path><path d="M1474.3 320L1514.3 191L1273 180Z" fill="#fbb3a3" stroke="#fbb3a3"></path><path d="M1709.7 391L1514.3 191L1474.3 320Z" fill="#fe948d" stroke="#fe948d"></path><path d="M435.7 0L389.7 178L615 150Z" fill="#fcad9e" stroke="#fcad9e"></path><path d="M429.7 381L212.3 389L421.7 503Z" fill="#ff8e8a" stroke="#ff8e8a"></path><path d="M230.3 750L390.7 862L432.7 702Z" fill="#ff8787" stroke="#ff8787"></path><path d="M633 1080L878.3 1080L837.3 896Z" fill="#ff8787" stroke="#ff8787"></path><path d="M878.3 1080L1030.7 1080L837.3 896Z" fill="#fea195" stroke="#fea195"></path><path d="M616 0L435.7 0L615 150Z" fill="#f9beae" stroke="#f9beae"></path><path d="M178.3 513L432.7 702L421.7 503Z" fill="#fab9a8" stroke="#fab9a8"></path><path d="M432.7 702L390.7 862L621 886Z" fill="#fbb3a3" stroke="#fbb3a3"></path><path d="M621 886L633 1080L837.3 896Z" fill="#f9beae" stroke="#f9beae"></path><path d="M1514.3 191L1495.3 0L1273 180Z" fill="#ff8787" stroke="#ff8787"></path><path d="M400.7 1080L633 1080L621 886Z" fill="#ff8e8a" stroke="#ff8e8a"></path><path d="M1261 916L1516.3 923L1248 747Z" fill="#ff8787" stroke="#ff8787"></path><path d="M1030.7 1080L1283 1080L1261 916Z" fill="#ff8e8a" stroke="#ff8e8a"></path><path d="M1283 1080L1516.3 923L1261 916Z" fill="#fda799" stroke="#fda799"></path><path d="M1720.7 546L1709.7 391L1465.3 549Z" fill="#fe948d" stroke="#fe948d"></path><path d="M219.3 204L429.7 381L389.7 178Z" fill="#fab9a8" stroke="#fab9a8"></path><path d="M219.3 204L212.3 389L429.7 381Z" fill="#fea195" stroke="#fea195"></path><path d="M1720.7 546L1465.3 549L1509.3 702Z" fill="#fe948d" stroke="#fe948d"></path><path d="M1514.3 191L1675.7 0L1495.3 0Z" fill="#fab9a8" stroke="#fab9a8"></path><path d="M1712.7 737L1720.7 546L1509.3 702Z" fill="#fda799" stroke="#fda799"></path><path d="M232.3 0L219.3 204L389.7 178Z" fill="#fcad9e" stroke="#fcad9e"></path><path d="M212.3 389L178.3 513L421.7 503Z" fill="#fe9b91" stroke="#fe9b91"></path><path d="M0 567L178.3 513L0 320Z" fill="#f8c4b4" stroke="#f8c4b4"></path><path d="M178.3 513L230.3 750L432.7 702Z" fill="#f8c4b4" stroke="#f8c4b4"></path><path d="M390.7 862L400.7 1080L621 886Z" fill="#f8c4b4" stroke="#f8c4b4"></path><path d="M1920 212L1707.7 181L1709.7 391Z" fill="#f8c4b4" stroke="#f8c4b4"></path><path d="M1709.7 391L1707.7 181L1514.3 191Z" fill="#f8c4b4" stroke="#f8c4b4"></path><path d="M1516.3 923L1712.7 737L1509.3 702Z" fill="#ff8e8a" stroke="#ff8e8a"></path><path d="M251.3 1080L400.7 1080L390.7 862Z" fill="#fea195" stroke="#fea195"></path><path d="M1283 1080L1518.3 1080L1516.3 923Z" fill="#fbb3a3" stroke="#fbb3a3"></path><path d="M1516.3 923L1736.7 904L1712.7 737Z" fill="#fcad9e" stroke="#fcad9e"></path><path d="M435.7 0L232.3 0L389.7 178Z" fill="#ff8787" stroke="#ff8787"></path><path d="M0 320L178.3 513L212.3 389Z" fill="#fbb3a3" stroke="#fbb3a3"></path><path d="M1707.7 181L1675.7 0L1514.3 191Z" fill="#f9beae" stroke="#f9beae"></path><path d="M0 756L224.3 885L230.3 750Z" fill="#fcad9e" stroke="#fcad9e"></path><path d="M230.3 750L224.3 885L390.7 862Z" fill="#ff8e8a" stroke="#ff8e8a"></path><path d="M1731.7 1080L1736.7 904L1516.3 923Z" fill="#fe9b91" stroke="#fe9b91"></path><path d="M1920 509L1709.7 391L1720.7 546Z" fill="#f9beae" stroke="#f9beae"></path><path d="M1920 509L1920 386L1709.7 391Z" fill="#fcad9e" stroke="#fcad9e"></path><path d="M224.3 885L251.3 1080L390.7 862Z" fill="#fda799" stroke="#fda799"></path><path d="M178.3 513L0 567L230.3 750Z" fill="#fe9b91" stroke="#fe9b91"></path><path d="M224.3 885L0 1080L251.3 1080Z" fill="#fab9a8" stroke="#fab9a8"></path><path d="M0 320L212.3 389L219.3 204Z" fill="#fcad9e" stroke="#fcad9e"></path><path d="M0 154L0 320L219.3 204Z" fill="#fab9a8" stroke="#fab9a8"></path><path d="M1920 509L1720.7 546L1920 715Z" fill="#fda799" stroke="#fda799"></path><path d="M1707.7 181L1920 0L1675.7 0Z" fill="#fe9b91" stroke="#fe9b91"></path><path d="M1920 715L1720.7 546L1712.7 737Z" fill="#ff8e8a" stroke="#ff8e8a"></path><path d="M1920 386L1920 212L1709.7 391Z" fill="#f8c4b4" stroke="#f8c4b4"></path><path d="M232.3 0L0 154L219.3 204Z" fill="#f8c4b4" stroke="#f8c4b4"></path><path d="M1920 863L1920 715L1712.7 737Z" fill="#fea195" stroke="#fea195"></path><path d="M0 567L0 756L230.3 750Z" fill="#fda799" stroke="#fda799"></path><path d="M1518.3 1080L1731.7 1080L1516.3 923Z" fill="#fe9b91" stroke="#fe9b91"></path><path d="M1736.7 904L1920 863L1712.7 737Z" fill="#ff8e8a" stroke="#ff8e8a"></path><path d="M1920 1080L1920 863L1736.7 904Z" fill="#fab9a8" stroke="#fab9a8"></path><path d="M232.3 0L0 0L0 154Z" fill="#ff8787" stroke="#ff8787"></path><path d="M0 756L0 915L224.3 885Z" fill="#f8c4b4" stroke="#f8c4b4"></path><path d="M1920 212L1920 0L1707.7 181Z" fill="#fda799" stroke="#fda799"></path><path d="M0 915L0 1080L224.3 885Z" fill="#fbb3a3" stroke="#fbb3a3"></path><path d="M1731.7 1080L1920 1080L1736.7 904Z" fill="#fe9b91" stroke="#fe9b91"></path></g></svg>